# xmcd
#
# Track frame offsets:
#	150
#	20256
#	35143
#	52797
#	71676
#
# Disc length: 1202 seconds
#
# Revision: 0
# Processed by: cddbd v1.5.2PL0 Copyright (c) Steve Scherf et al.
# Submitted via: EZCDAudioConverter 7.0.0.1
#
DISCID=3a04b005
DTITLE=Laptop - End Credits
DYEAR=1998
DGENRE=Electronic
TTITLE0=End Credits
TTITLE1=The Stranger
TTITLE2=Cool Scouts
TTITLE3=21st Century Word
TTITLE4=Myth America
EXTD=
EXTT0=
EXTT1=
EXTT2=
EXTT3=
EXTT4=
PLAYORDER=
